{
	"patcher" : 	{
		"fileversion" : 1,
		"appversion" : 		{
			"major" : 6,
			"minor" : 0,
			"revision" : 3
		}
,
		"rect" : [ 7.0, 187.0, 1009.0, 584.0 ],
		"bglocked" : 0,
		"openinpresentation" : 0,
		"default_fontsize" : 12.0,
		"default_fontface" : 0,
		"default_fontname" : "Arial",
		"gridonopen" : 0,
		"gridsize" : [ 15.0, 15.0 ],
		"gridsnaponopen" : 0,
		"statusbarvisible" : 2,
		"toolbarvisible" : 1,
		"boxanimatetime" : 200,
		"imprint" : 0,
		"enablehscroll" : 1,
		"enablevscroll" : 1,
		"devicewidth" : 0.0,
		"description" : "",
		"digest" : "",
		"tags" : "",
		"boxes" : [ 			{
				"box" : 				{
					"fontname" : "Arial",
					"fontsize" : 12.0,
					"id" : "obj-18",
					"maxclass" : "message",
					"numinlets" : 2,
					"numoutlets" : 1,
					"outlettype" : [ "" ],
					"patching_rect" : [ 672.5, 533.0, 285.0, 18.0 ],
					"text" : "-128 1031"
				}

			}
, 			{
				"box" : 				{
					"fontname" : "Arial",
					"fontsize" : 12.0,
					"id" : "obj-16",
					"maxclass" : "newobj",
					"numinlets" : 2,
					"numoutlets" : 2,
					"outlettype" : [ "", "" ],
					"patching_rect" : [ 802.0, 491.0, 53.0, 20.0 ],
					"text" : "zl.group"
				}

			}
, 			{
				"box" : 				{
					"fontname" : "Arial",
					"fontsize" : 13.0,
					"id" : "obj-14",
					"maxclass" : "newobj",
					"numinlets" : 1,
					"numoutlets" : 1,
					"outlettype" : [ "" ],
					"patching_rect" : [ 775.0, 451.0, 80.0, 21.0 ],
					"text" : "fromsymbol"
				}

			}
, 			{
				"box" : 				{
					"fontname" : "Arial",
					"fontsize" : 12.0,
					"id" : "obj-13",
					"maxclass" : "newobj",
					"numinlets" : 1,
					"numoutlets" : 2,
					"outlettype" : [ "", "" ],
					"patching_rect" : [ 775.0, 345.0, 32.5, 20.0 ],
					"text" : "t l l"
				}

			}
, 			{
				"box" : 				{
					"id" : "obj-12",
					"maxclass" : "toggle",
					"numinlets" : 1,
					"numoutlets" : 1,
					"outlettype" : [ "int" ],
					"parameter_enable" : 0,
					"patching_rect" : [ 887.0, 471.0, 20.0, 20.0 ]
				}

			}
, 			{
				"box" : 				{
					"fontname" : "Arial",
					"fontsize" : 12.0,
					"id" : "obj-10",
					"maxclass" : "newobj",
					"numinlets" : 2,
					"numoutlets" : 2,
					"outlettype" : [ "", "" ],
					"patching_rect" : [ 775.0, 423.0, 39.0, 20.0 ],
					"text" : "zl.iter"
				}

			}
, 			{
				"box" : 				{
					"fontname" : "Arial",
					"fontsize" : 12.0,
					"id" : "obj-9",
					"maxclass" : "newobj",
					"numinlets" : 2,
					"numoutlets" : 2,
					"outlettype" : [ "", "" ],
					"patching_rect" : [ 809.0, 376.5, 39.0, 20.0 ],
					"text" : "zl.len"
				}

			}
, 			{
				"box" : 				{
					"fontname" : "Arial",
					"fontsize" : 12.0,
					"id" : "obj-8",
					"maxclass" : "newobj",
					"numinlets" : 1,
					"numoutlets" : 0,
					"patching_rect" : [ 837.0, 91.0, 34.0, 20.0 ],
					"text" : "print"
				}

			}
, 			{
				"box" : 				{
					"fontname" : "Arial",
					"fontsize" : 12.0,
					"id" : "obj-7",
					"maxclass" : "message",
					"numinlets" : 2,
					"numoutlets" : 1,
					"outlettype" : [ "" ],
					"patching_rect" : [ 612.0, 212.0, 285.0, 18.0 ],
					"text" : "-138 1048"
				}

			}
, 			{
				"box" : 				{
					"fontname" : "Arial",
					"fontsize" : 12.0,
					"id" : "obj-6",
					"linecount" : 23,
					"maxclass" : "message",
					"numinlets" : 2,
					"numoutlets" : 1,
					"outlettype" : [ "" ],
					"patching_rect" : [ 314.0, 212.0, 285.0, 322.0 ],
					"text" : "\"-138 1048\" \"-134 708\" \"-133 275\" \"-64 7\" \"-54 508\" \"164 1005\" \"161 680\" \"186 334\" \"237 23\" \"382 919\" \"398 638\" \"456 277\" \"525 1132\" \"527 18\" \"632 702\" \"698 941\" \"720 316\" \"808 -19\" \"844 635\" \"865 867\" \"892 1100\" \"942 361\" \"1018 -35\" \"1077 837\" \"1069 601\" \"1264 1066\" \"1195 88\" \"1280 572\" \"1405 856\" \"1486 1123\" \"1393 -120\" \"1428 345\" \"1619 708\" \"1770 557\" \"1811 1152\" \"1905 824\" \"2124 91\" \"2065 487\" \"2084 900\" \"2191 602\" \"2204 1073\" \"2324 -19\" \"2346 715\" \"2397 284\" \"2386 908\" \"2586 362\" \"2585 751\" \"2585 1174\" \"2679 -45\" \"2709 545\" \"2767 276\" \"2742 856\" \"2944 -21\" \"2952 442\" \"3116 1397\" \"3112 133\" \"3139 658\" \"3518 1099\" \"3291 167\" \"3424 -146\" \"3379 571\" \"3587 870\" \"3754 1211\" \"3888 18\" \"3897 879\" \"4010 1114\" \"4098 641\" \"4155 340\" \"4105 -119\" \"4254 1082\" \"4325 276\" \"4321 -98\" \"4343 771\" \"4431 87\" \"4524 574\" \"4509 931\" \"4531 1139\" \"4606 23\" \"4698 770\" \"4762 1004\" \"4808 222\" \"4823 478\" \"4858 -25\" \"4980 740\" \"5030 417\" \"5163 -26\" \"5185 856\" \"5190 231\" \"5183 1114\" \"5298 654\" \"5382 1034\" \"5453 275\" \"5519 7\" \"5540 595\" \"5606 931\" \"5784 437\" \"5816 -25\" \"5893 686\" \"5892 970\" \"5900 228\""
				}

			}
, 			{
				"box" : 				{
					"fontname" : "Arial",
					"fontsize" : 13.0,
					"id" : "obj-28",
					"maxclass" : "newobj",
					"numinlets" : 1,
					"numoutlets" : 1,
					"outlettype" : [ "" ],
					"patching_rect" : [ 554.0, 74.0, 80.0, 21.0 ],
					"text" : "fromsymbol"
				}

			}
, 			{
				"box" : 				{
					"fontname" : "Arial",
					"fontsize" : 13.0,
					"id" : "obj-5",
					"maxclass" : "message",
					"numinlets" : 2,
					"numoutlets" : 1,
					"outlettype" : [ "" ],
					"patching_rect" : [ 170.0, 14.0, 65.0, 19.0 ],
					"text" : "port 6666"
				}

			}
, 			{
				"box" : 				{
					"fontname" : "Arial",
					"fontsize" : 12.0,
					"id" : "obj-4",
					"linecount" : 24,
					"maxclass" : "message",
					"numinlets" : 2,
					"numoutlets" : 1,
					"outlettype" : [ "" ],
					"patching_rect" : [ 21.0, 212.0, 282.0, 336.0 ],
					"text" : "/GH/CenterPointsXY \"-138 1048\" \"-134 708\" \"-133 275\" \"-64 7\" \"-54 508\" \"164 1005\" \"161 680\" \"186 334\" \"237 23\" \"382 919\" \"398 638\" \"456 277\" \"525 1132\" \"527 18\" \"632 702\" \"698 941\" \"720 316\" \"808 -19\" \"844 635\" \"865 867\" \"892 1100\" \"942 361\" \"1018 -35\" \"1077 837\" \"1069 601\" \"1264 1066\" \"1195 88\" \"1280 572\" \"1405 856\" \"1486 1123\" \"1393 -120\" \"1428 345\" \"1619 708\" \"1770 557\" \"1811 1152\" \"1905 824\" \"2124 91\" \"2065 487\" \"2084 900\" \"2191 602\" \"2204 1073\" \"2324 -19\" \"2346 715\" \"2397 284\" \"2386 908\" \"2586 362\" \"2585 751\" \"2585 1174\" \"2679 -45\" \"2709 545\" \"2767 276\" \"2742 856\" \"2944 -21\" \"2952 442\" \"3116 1397\" \"3112 133\" \"3139 658\" \"3518 1099\" \"3291 167\" \"3424 -146\" \"3379 571\" \"3587 870\" \"3754 1211\" \"3888 18\" \"3897 879\" \"4010 1114\" \"4098 641\" \"4155 340\" \"4105 -119\" \"4254 1082\" \"4325 276\" \"4321 -98\" \"4343 771\" \"4431 87\" \"4524 574\" \"4509 931\" \"4531 1139\" \"4606 23\" \"4698 770\" \"4762 1004\" \"4808 222\" \"4823 478\" \"4858 -25\" \"4980 740\" \"5030 417\" \"5163 -26\" \"5185 856\" \"5190 231\" \"5183 1114\" \"5298 654\" \"5382 1034\" \"5453 275\" \"5519 7\" \"5540 595\" \"5606 931\" \"5784 437\" \"5816 -25\" \"5893 686\" \"5892 970\" \"5900 228\""
				}

			}
, 			{
				"box" : 				{
					"color" : [ 1.0, 0.890196, 0.090196, 1.0 ],
					"fontname" : "Helvetica",
					"fontsize" : 12.0,
					"id" : "obj-2",
					"maxclass" : "newobj",
					"numinlets" : 2,
					"numoutlets" : 2,
					"outlettype" : [ "", "" ],
					"patching_rect" : [ 127.0, 82.0, 151.0, 20.0 ],
					"text" : "route /GH/CenterPointsXY"
				}

			}
, 			{
				"box" : 				{
					"comment" : "",
					"id" : "obj-15",
					"maxclass" : "outlet",
					"numinlets" : 1,
					"numoutlets" : 0,
					"patching_rect" : [ 729.25, 628.0, 20.0, 20.0 ]
				}

			}
, 			{
				"box" : 				{
					"fontname" : "Arial",
					"fontsize" : 13.0,
					"id" : "obj-46",
					"maxclass" : "message",
					"numinlets" : 2,
					"numoutlets" : 1,
					"outlettype" : [ "" ],
					"patching_rect" : [ 21.0, 14.0, 65.0, 19.0 ],
					"text" : "port 4444"
				}

			}
, 			{
				"box" : 				{
					"fontname" : "Arial",
					"fontsize" : 13.0,
					"id" : "obj-45",
					"maxclass" : "message",
					"numinlets" : 2,
					"numoutlets" : 1,
					"outlettype" : [ "" ],
					"patching_rect" : [ 94.0, 14.0, 65.0, 19.0 ],
					"text" : "port 7400"
				}

			}
, 			{
				"box" : 				{
					"fontname" : "Arial",
					"fontsize" : 12.0,
					"id" : "obj-1",
					"maxclass" : "newobj",
					"numinlets" : 1,
					"numoutlets" : 1,
					"outlettype" : [ "" ],
					"patching_rect" : [ 21.0, 43.0, 99.0, 20.0 ],
					"text" : "udpreceive 6666"
				}

			}
 ],
		"lines" : [ 			{
				"patchline" : 				{
					"destination" : [ "obj-2", 0 ],
					"disabled" : 0,
					"hidden" : 0,
					"source" : [ "obj-1", 0 ]
				}

			}
, 			{
				"patchline" : 				{
					"destination" : [ "obj-4", 1 ],
					"disabled" : 0,
					"hidden" : 0,
					"source" : [ "obj-1", 0 ]
				}

			}
, 			{
				"patchline" : 				{
					"destination" : [ "obj-14", 0 ],
					"disabled" : 0,
					"hidden" : 0,
					"source" : [ "obj-10", 0 ]
				}

			}
, 			{
				"patchline" : 				{
					"destination" : [ "obj-10", 0 ],
					"disabled" : 0,
					"hidden" : 0,
					"source" : [ "obj-13", 0 ]
				}

			}
, 			{
				"patchline" : 				{
					"destination" : [ "obj-9", 0 ],
					"disabled" : 0,
					"hidden" : 0,
					"source" : [ "obj-13", 1 ]
				}

			}
, 			{
				"patchline" : 				{
					"destination" : [ "obj-16", 0 ],
					"disabled" : 0,
					"hidden" : 0,
					"source" : [ "obj-14", 0 ]
				}

			}
, 			{
				"patchline" : 				{
					"destination" : [ "obj-18", 1 ],
					"disabled" : 0,
					"hidden" : 0,
					"source" : [ "obj-16", 0 ]
				}

			}
, 			{
				"patchline" : 				{
					"destination" : [ "obj-13", 0 ],
					"disabled" : 0,
					"hidden" : 0,
					"source" : [ "obj-2", 0 ]
				}

			}
, 			{
				"patchline" : 				{
					"destination" : [ "obj-28", 0 ],
					"disabled" : 0,
					"hidden" : 0,
					"source" : [ "obj-2", 0 ]
				}

			}
, 			{
				"patchline" : 				{
					"destination" : [ "obj-6", 1 ],
					"disabled" : 0,
					"hidden" : 0,
					"source" : [ "obj-2", 0 ]
				}

			}
, 			{
				"patchline" : 				{
					"destination" : [ "obj-7", 1 ],
					"disabled" : 0,
					"hidden" : 0,
					"source" : [ "obj-28", 0 ]
				}

			}
, 			{
				"patchline" : 				{
					"destination" : [ "obj-1", 0 ],
					"disabled" : 0,
					"hidden" : 0,
					"source" : [ "obj-45", 0 ]
				}

			}
, 			{
				"patchline" : 				{
					"destination" : [ "obj-1", 0 ],
					"disabled" : 0,
					"hidden" : 0,
					"source" : [ "obj-46", 0 ]
				}

			}
, 			{
				"patchline" : 				{
					"destination" : [ "obj-1", 0 ],
					"disabled" : 0,
					"hidden" : 0,
					"source" : [ "obj-5", 0 ]
				}

			}
, 			{
				"patchline" : 				{
					"destination" : [ "obj-10", 1 ],
					"disabled" : 0,
					"hidden" : 0,
					"source" : [ "obj-9", 0 ]
				}

			}
, 			{
				"patchline" : 				{
					"destination" : [ "obj-16", 1 ],
					"disabled" : 0,
					"hidden" : 0,
					"source" : [ "obj-9", 0 ]
				}

			}
 ],
		"dependency_cache" : [  ]
	}

}
